<svg width="20" height="20" viewBox="0 0 20 20" fill="none" xmlns="http://www.w3.org/2000/svg">
<path fill-rule="evenodd" clip-rule="evenodd" d="M7.08366 7.91602C7.08366 6.30768 8.39199 4.99935 10.0003 4.99935C11.6087 4.99935 12.917 6.30768 12.917 7.91602C12.917 9.23268 12.0337 10.3352 10.8337 10.6968V11.666C10.8337 12.1268 10.4612 12.4993 10.0003 12.4993C9.53949 12.4993 9.16699 12.1268 9.16699 11.666V9.99935C9.16699 9.53852 9.53949 9.16602 10.0003 9.16602C10.6895 9.16602 11.2503 8.60518 11.2503 7.91602C11.2503 7.22685 10.6895 6.66602 10.0003 6.66602C9.31116 6.66602 8.75033 7.22685 8.75033 7.91602C8.75033 8.37685 8.37783 8.74935 7.91699 8.74935C7.45616 8.74935 7.08366 8.37685 7.08366 7.91602ZM9.16699 14.166C9.16699 13.7052 9.53949 13.3327 10.0003 13.3327C10.4612 13.3327 10.8337 13.7052 10.8337 14.166C10.8337 14.6268 10.4612 14.9993 10.0003 14.9993C9.53949 14.9993 9.16699 14.6268 9.16699 14.166ZM10.0003 16.666C6.32449 16.666 3.33366 13.6752 3.33366 9.99935C3.33366 6.32352 6.32449 3.33268 10.0003 3.33268C13.6762 3.33268 16.667 6.32352 16.667 9.99935C16.667 13.6752 13.6762 16.666 10.0003 16.666ZM10.0003 1.66602C5.40533 1.66602 1.66699 5.40435 1.66699 9.99935C1.66699 14.5943 5.40533 18.3327 10.0003 18.3327C14.5953 18.3327 18.3337 14.5943 18.3337 9.99935C18.3337 5.40435 14.5953 1.66602 10.0003 1.66602Z" fill="#1D2023"/>
</svg>
